<mxfile host="app.diagrams.net" modified="2022-05-10T11:13:30.688Z" agent="5.0 (Windows NT 10.0; Win64; x64) AppleWebKit/537.36 (KHTML, like Gecko) Chrome/101.0.4951.54 Safari/537.36" etag="4K6w_DBKS-wi6R4gJmYC" version="18.0.2" type="github">
  <diagram id="ySRY9QNMZMaFZb5ytuQi" name="Page-1">
    <mxGraphModel dx="2031" dy="1134" grid="1" gridSize="10" guides="1" tooltips="1" connect="1" arrows="1" fold="1" page="1" pageScale="1" pageWidth="4681" pageHeight="3300" math="0" shadow="0">
      <root>
        <mxCell id="0" />
        <mxCell id="1" parent="0" />
        <mxCell id="DIjM9-J19nFqN8VUxFfw-1" value="" style="whiteSpace=wrap;html=1;fillColor=none;" vertex="1" parent="1">
          <mxGeometry x="510" y="80" width="1350" height="490" as="geometry" />
        </mxCell>
        <mxCell id="DIjM9-J19nFqN8VUxFfw-2" value="" style="edgeStyle=orthogonalEdgeStyle;rounded=0;orthogonalLoop=1;jettySize=auto;html=1;" edge="1" parent="1" source="DIjM9-J19nFqN8VUxFfw-3" target="DIjM9-J19nFqN8VUxFfw-7">
          <mxGeometry relative="1" as="geometry" />
        </mxCell>
        <mxCell id="DIjM9-J19nFqN8VUxFfw-3" value="Declare if and when a speed change should occur and what the new speed should be on which belt" style="rounded=1;whiteSpace=wrap;html=1;fontSize=12;glass=0;strokeWidth=1;shadow=0;" vertex="1" parent="1">
          <mxGeometry x="780" y="130" width="200" height="90" as="geometry" />
        </mxCell>
        <mxCell id="DIjM9-J19nFqN8VUxFfw-4" value="" style="edgeStyle=orthogonalEdgeStyle;rounded=0;orthogonalLoop=1;jettySize=auto;html=1;" edge="1" parent="1" source="DIjM9-J19nFqN8VUxFfw-7" target="DIjM9-J19nFqN8VUxFfw-8">
          <mxGeometry relative="1" as="geometry" />
        </mxCell>
        <mxCell id="DIjM9-J19nFqN8VUxFfw-5" value="" style="edgeStyle=orthogonalEdgeStyle;rounded=0;orthogonalLoop=1;jettySize=auto;html=1;" edge="1" parent="1" source="DIjM9-J19nFqN8VUxFfw-7" target="DIjM9-J19nFqN8VUxFfw-10">
          <mxGeometry relative="1" as="geometry" />
        </mxCell>
        <mxCell id="DIjM9-J19nFqN8VUxFfw-6" style="edgeStyle=orthogonalEdgeStyle;rounded=0;orthogonalLoop=1;jettySize=auto;html=1;" edge="1" parent="1" source="DIjM9-J19nFqN8VUxFfw-7" target="DIjM9-J19nFqN8VUxFfw-11">
          <mxGeometry relative="1" as="geometry" />
        </mxCell>
        <mxCell id="DIjM9-J19nFqN8VUxFfw-7" value="Is current time &amp;gt;&amp;nbsp; time &lt;br&gt;of the speed change?" style="rhombus;whiteSpace=wrap;html=1;shadow=0;fontFamily=Helvetica;fontSize=12;align=center;strokeWidth=1;spacing=6;spacingTop=-4;" vertex="1" parent="1">
          <mxGeometry x="790" y="260" width="180" height="125" as="geometry" />
        </mxCell>
        <mxCell id="DIjM9-J19nFqN8VUxFfw-8" value="No speed change&amp;nbsp;" style="rounded=1;whiteSpace=wrap;html=1;shadow=0;strokeWidth=1;spacing=6;spacingTop=-4;" vertex="1" parent="1">
          <mxGeometry x="560" y="292.5" width="120" height="60" as="geometry" />
        </mxCell>
        <mxCell id="DIjM9-J19nFqN8VUxFfw-9" value="" style="edgeStyle=orthogonalEdgeStyle;rounded=0;orthogonalLoop=1;jettySize=auto;html=1;" edge="1" parent="1" source="DIjM9-J19nFqN8VUxFfw-10" target="DIjM9-J19nFqN8VUxFfw-12">
          <mxGeometry relative="1" as="geometry" />
        </mxCell>
        <mxCell id="DIjM9-J19nFqN8VUxFfw-10" value="&lt;i&gt;AnnounceEnableBeltSpeedChange&lt;/i&gt;" style="rounded=1;whiteSpace=wrap;html=1;shadow=0;strokeWidth=1;spacing=6;spacingTop=-4;" vertex="1" parent="1">
          <mxGeometry x="630" y="480" width="220" height="60" as="geometry" />
        </mxCell>
        <mxCell id="DIjM9-J19nFqN8VUxFfw-11" value="&lt;i&gt;sendProcessParameterUpdate&lt;/i&gt;" style="rounded=1;whiteSpace=wrap;html=1;shadow=0;strokeWidth=1;spacing=6;spacingTop=-4;" vertex="1" parent="1">
          <mxGeometry x="910" y="480" width="220" height="60" as="geometry" />
        </mxCell>
        <mxCell id="DIjM9-J19nFqN8VUxFfw-12" value="Send message with belt number, time and speed to socket:&lt;br&gt;&lt;i&gt;connect_socket.send_message(message)&lt;/i&gt;" style="rounded=1;whiteSpace=wrap;html=1;shadow=0;strokeWidth=1;spacing=6;spacingTop=-4;" vertex="1" parent="1">
          <mxGeometry x="615" y="600" width="250" height="60" as="geometry" />
        </mxCell>
        <mxCell id="DIjM9-J19nFqN8VUxFfw-13" value="app_simulator.cpp" style="text;html=1;strokeColor=none;fillColor=none;align=center;verticalAlign=middle;whiteSpace=wrap;rounded=0;" vertex="1" parent="1">
          <mxGeometry x="540" y="86" width="60" height="30" as="geometry" />
        </mxCell>
        <mxCell id="DIjM9-J19nFqN8VUxFfw-14" value="" style="whiteSpace=wrap;html=1;fillColor=none;" vertex="1" parent="1">
          <mxGeometry x="510" y="570" width="1350" height="130" as="geometry" />
        </mxCell>
        <mxCell id="DIjM9-J19nFqN8VUxFfw-15" value="Simulator_send.cpp" style="text;html=1;strokeColor=none;fillColor=none;align=center;verticalAlign=middle;whiteSpace=wrap;rounded=0;" vertex="1" parent="1">
          <mxGeometry x="540" y="570" width="60" height="30" as="geometry" />
        </mxCell>
        <mxCell id="DIjM9-J19nFqN8VUxFfw-16" value="Y" style="text;html=1;strokeColor=none;fillColor=none;align=center;verticalAlign=middle;whiteSpace=wrap;rounded=0;" vertex="1" parent="1">
          <mxGeometry x="865" y="390" width="60" height="30" as="geometry" />
        </mxCell>
        <mxCell id="DIjM9-J19nFqN8VUxFfw-17" value="N" style="text;html=1;strokeColor=none;fillColor=none;align=center;verticalAlign=middle;whiteSpace=wrap;rounded=0;" vertex="1" parent="1">
          <mxGeometry x="710" y="292.5" width="60" height="30" as="geometry" />
        </mxCell>
        <mxCell id="DIjM9-J19nFqN8VUxFfw-18" value="" style="edgeStyle=orthogonalEdgeStyle;rounded=0;orthogonalLoop=1;jettySize=auto;html=1;" edge="1" parent="1" source="DIjM9-J19nFqN8VUxFfw-19" target="DIjM9-J19nFqN8VUxFfw-23">
          <mxGeometry relative="1" as="geometry" />
        </mxCell>
        <mxCell id="DIjM9-J19nFqN8VUxFfw-19" value="Declare if you want diagnostics" style="rounded=1;whiteSpace=wrap;html=1;fontSize=12;glass=0;strokeWidth=1;shadow=0;" vertex="1" parent="1">
          <mxGeometry x="1380" y="130" width="200" height="90" as="geometry" />
        </mxCell>
        <mxCell id="DIjM9-J19nFqN8VUxFfw-20" value="" style="edgeStyle=orthogonalEdgeStyle;rounded=0;orthogonalLoop=1;jettySize=auto;html=1;" edge="1" parent="1" source="DIjM9-J19nFqN8VUxFfw-23" target="DIjM9-J19nFqN8VUxFfw-24">
          <mxGeometry relative="1" as="geometry" />
        </mxCell>
        <mxCell id="DIjM9-J19nFqN8VUxFfw-21" value="" style="edgeStyle=orthogonalEdgeStyle;rounded=0;orthogonalLoop=1;jettySize=auto;html=1;" edge="1" parent="1" source="DIjM9-J19nFqN8VUxFfw-23" target="DIjM9-J19nFqN8VUxFfw-26">
          <mxGeometry relative="1" as="geometry" />
        </mxCell>
        <mxCell id="DIjM9-J19nFqN8VUxFfw-22" style="edgeStyle=orthogonalEdgeStyle;rounded=0;orthogonalLoop=1;jettySize=auto;html=1;" edge="1" parent="1" source="DIjM9-J19nFqN8VUxFfw-23" target="DIjM9-J19nFqN8VUxFfw-27">
          <mxGeometry relative="1" as="geometry" />
        </mxCell>
        <mxCell id="DIjM9-J19nFqN8VUxFfw-23" value="Is current time &amp;gt;&amp;nbsp; time &lt;br&gt;of the speed change? &amp;amp; Do we want diagnostics?" style="rhombus;whiteSpace=wrap;html=1;shadow=0;fontFamily=Helvetica;fontSize=12;align=center;strokeWidth=1;spacing=6;spacingTop=-4;" vertex="1" parent="1">
          <mxGeometry x="1390" y="260" width="180" height="125" as="geometry" />
        </mxCell>
        <mxCell id="DIjM9-J19nFqN8VUxFfw-24" value="No diagnostics" style="rounded=1;whiteSpace=wrap;html=1;shadow=0;strokeWidth=1;spacing=6;spacingTop=-4;" vertex="1" parent="1">
          <mxGeometry x="1160" y="292.5" width="120" height="60" as="geometry" />
        </mxCell>
        <mxCell id="DIjM9-J19nFqN8VUxFfw-25" value="" style="edgeStyle=orthogonalEdgeStyle;rounded=0;orthogonalLoop=1;jettySize=auto;html=1;" edge="1" parent="1" source="DIjM9-J19nFqN8VUxFfw-26" target="DIjM9-J19nFqN8VUxFfw-28">
          <mxGeometry relative="1" as="geometry" />
        </mxCell>
        <mxCell id="DIjM9-J19nFqN8VUxFfw-26" value="&lt;i&gt;sendDiagnostics_Request&lt;/i&gt;" style="rounded=1;whiteSpace=wrap;html=1;shadow=0;strokeWidth=1;spacing=6;spacingTop=-4;" vertex="1" parent="1">
          <mxGeometry x="1230" y="480" width="220" height="60" as="geometry" />
        </mxCell>
        <mxCell id="DIjM9-J19nFqN8VUxFfw-27" value="Print message that is currently on socket with:&lt;br&gt;&lt;i&gt;&amp;nbsp;const auto response0 = reader.receive_message_until(static_cast&amp;lt;uint8_t&amp;gt;(200));&lt;/i&gt;&lt;br&gt;&lt;i&gt;reader.print_message(response0);&lt;/i&gt;" style="rounded=1;whiteSpace=wrap;html=1;shadow=0;strokeWidth=1;spacing=6;spacingTop=-4;" vertex="1" parent="1">
          <mxGeometry x="1480" y="480" width="350" height="60" as="geometry" />
        </mxCell>
        <mxCell id="DIjM9-J19nFqN8VUxFfw-28" value="Send message with table and segment number and actual time to socket:&lt;br&gt;&lt;i&gt;connect_socket.send_message(message)&lt;/i&gt;" style="rounded=1;whiteSpace=wrap;html=1;shadow=0;strokeWidth=1;spacing=6;spacingTop=-4;" vertex="1" parent="1">
          <mxGeometry x="1215" y="600" width="250" height="60" as="geometry" />
        </mxCell>
        <mxCell id="DIjM9-J19nFqN8VUxFfw-29" value="Y" style="text;html=1;strokeColor=none;fillColor=none;align=center;verticalAlign=middle;whiteSpace=wrap;rounded=0;" vertex="1" parent="1">
          <mxGeometry x="1465" y="390" width="60" height="30" as="geometry" />
        </mxCell>
        <mxCell id="DIjM9-J19nFqN8VUxFfw-30" value="N" style="text;html=1;strokeColor=none;fillColor=none;align=center;verticalAlign=middle;whiteSpace=wrap;rounded=0;" vertex="1" parent="1">
          <mxGeometry x="1310" y="292.5" width="60" height="30" as="geometry" />
        </mxCell>
      </root>
    </mxGraphModel>
  </diagram>
</mxfile>
